<svg width="152" height="42" viewBox="0 0 152 42" fill="none" xmlns="http://www.w3.org/2000/svg">
<g clip-path="url(#clip0_53296_71852)">
<path d="M39.2415 40.3662V40.5617C35.5015 40.5734 31.7615 40.6008 28.0215 40.5734C27.6218 40.5237 27.2555 40.3255 26.9951 40.0182C24.6491 37.3163 22.3382 34.5851 20.0156 31.8637L13.7282 24.4893C13.4036 24.7571 13.126 24.9761 12.8601 25.2107C8.90704 28.6959 4.95394 32.1811 1.00084 35.6663C0.726381 35.8792 0.439101 36.0751 0.140625 36.2528L0.140625 7.70914L11.4799 17.6017C11.7868 17.3319 12.0332 17.1266 12.2619 16.9076C17.2642 12.2051 22.2685 7.50582 27.2747 2.8098C27.564 2.54001 27.9668 2.22329 28.3187 2.22329C31.9609 2.19396 35.6032 2.22329 39.2454 2.2448V2.4403C39.0576 2.5611 38.8762 2.69162 38.7019 2.83131C33.1431 7.74759 27.5881 12.6678 22.0371 17.5919C20.3871 19.0562 18.7448 20.5245 17.0615 22.0279C17.3489 22.284 17.5562 22.4854 17.779 22.6691C20.7364 25.1195 23.695 27.5672 26.6549 30.0123C30.8479 33.4675 35.0434 36.9188 39.2415 40.3662ZM1.38208 10.4599L1.18657 10.5342L5.71446 23.6037L9.49942 19.6095L1.38208 10.4599Z" fill="#001E62"/>
<path d="M64.0031 28.2514C63.3697 27.2791 62.6404 26.2585 61.8154 25.1898C60.9904 24.121 60.1217 23.0881 59.2093 22.091C58.297 21.0952 57.3553 20.1477 56.3843 19.2484C55.4835 18.4046 54.5245 17.6252 53.5143 16.916V28.2553H48.9141V2.99219H53.5143V13.4165C54.3158 12.6149 55.1539 11.7586 56.0285 10.8476C56.903 9.9365 57.7717 9.01307 58.6345 8.07726C59.4974 7.14275 60.3172 6.23756 61.094 5.3617C61.8708 4.48584 62.5759 3.696 63.2093 2.99219H68.705C67.9008 3.91627 67.0504 4.8762 66.1536 5.87197C65.2569 6.86774 64.3335 7.87002 63.3833 8.87883C62.4358 9.88763 61.4817 10.8925 60.5212 11.8935C59.5606 12.8945 58.6189 13.8394 57.6961 14.7283C58.7898 15.5686 59.8305 16.4755 60.8125 17.4439C61.8708 18.4787 62.9096 19.5866 63.9288 20.7675C64.948 21.9483 65.9256 23.1754 66.8614 24.4488C67.7959 25.7235 68.6522 26.993 69.4303 28.2572L64.0031 28.2514Z" fill="#001E62"/>
<path d="M88.8238 18.7058C88.8408 20.1061 88.6193 21.499 88.1689 22.825C87.7708 23.9973 87.1382 25.0762 86.3096 25.9961C85.5005 26.8754 84.5126 27.5713 83.4123 28.0372C82.2298 28.5329 80.9583 28.7811 79.6762 28.7664C78.401 28.782 77.1363 28.5337 75.9616 28.0372C74.8691 27.5675 73.8883 26.8719 73.0838 25.9961C72.2525 25.0748 71.6137 23.9967 71.205 22.825C70.7393 21.5022 70.509 20.1081 70.5246 18.7058C70.5049 17.3083 70.7326 15.9183 71.1972 14.6002C71.6108 13.4328 72.2558 12.3609 73.0935 11.4486C73.9066 10.5762 74.8973 9.88817 75.9987 9.43103C77.1649 8.94671 78.4174 8.70459 79.6801 8.71939C80.9483 8.70599 82.2063 8.94801 83.379 9.43103C84.4815 9.88488 85.4707 10.5757 86.2764 11.4545C87.1032 12.3713 87.741 13.4423 88.1533 14.606C88.6165 15.9225 88.8435 17.3104 88.8238 18.7058ZM84.3057 18.7058C84.3057 16.812 83.8984 15.3131 83.0838 14.2092C82.2692 13.1052 81.1333 12.5526 79.6762 12.5513C78.2177 12.5513 77.0818 13.1039 76.2685 14.2092C75.4552 15.3144 75.0479 16.8133 75.0466 18.7058C75.0466 20.6256 75.4539 22.1447 76.2685 23.263C77.0831 24.3812 78.219 24.9397 79.6762 24.9384C81.1346 24.9384 82.2705 24.3799 83.0838 23.263C83.8971 22.146 84.3044 20.6269 84.3057 18.7058Z" fill="#001E62"/>
<path d="M109.489 27.6698C108.406 27.9831 107.303 28.2261 106.189 28.397C104.809 28.6205 103.414 28.7303 102.017 28.7255C100.636 28.7477 99.2642 28.513 97.9698 28.0334C96.8234 27.6003 95.7853 26.9224 94.9277 26.0471C94.0696 25.153 93.4112 24.0867 92.9961 22.919C92.5289 21.5886 92.3006 20.1861 92.3216 18.7763C92.3042 17.3872 92.4946 16.0034 92.8867 14.6707C93.2224 13.5196 93.7862 12.4479 94.5445 11.5192C95.2647 10.6497 96.1751 9.95736 97.2054 9.49568C98.3437 9.0034 99.5744 8.76137 100.814 8.786C101.64 8.77201 102.463 8.88206 103.256 9.11249C103.884 9.30128 104.494 9.54531 105.078 9.84172V0.697981L109.489 -0.03125V27.6698ZM96.8417 18.6766C96.8417 20.6199 97.3031 22.1442 98.2259 23.2494C99.1487 24.3547 100.424 24.9079 102.052 24.9092C102.655 24.9144 103.257 24.8837 103.856 24.8174C104.267 24.7726 104.675 24.7074 105.078 24.6219V13.6736C104.596 13.3603 104.076 13.1094 103.53 12.9268C102.868 12.6926 102.171 12.5748 101.469 12.5788C99.8662 12.5788 98.6931 13.1255 97.9502 14.2191C97.2073 15.3126 96.8378 16.7952 96.8417 18.6668V18.6766Z" fill="#001E62"/>
<path d="M114.041 18.8166C114.011 17.3131 114.265 15.8175 114.788 14.4079C115.23 13.2329 115.905 12.1599 116.775 11.2544C117.578 10.4294 118.547 9.78316 119.617 9.35805C120.66 8.937 121.773 8.71998 122.898 8.71875C125.522 8.71875 127.568 9.5327 129.039 11.1606C130.509 12.7885 131.244 15.2193 131.244 18.4529C131.244 18.6953 131.244 18.969 131.226 19.2721C131.209 19.5751 131.195 19.8586 131.172 20.0932H118.597C118.718 21.6247 119.259 22.8094 120.219 23.6475C121.18 24.4855 122.571 24.9046 124.392 24.9046C125.377 24.9125 126.36 24.8149 127.324 24.6133C128.04 24.4701 128.741 24.2627 129.42 23.9935L130.006 27.6006C129.684 27.7572 129.349 27.888 129.005 27.9916C128.526 28.139 128.039 28.2604 127.547 28.3552C127 28.4647 126.413 28.5559 125.787 28.6289C125.146 28.7031 124.501 28.7396 123.856 28.7384C122.178 28.7384 120.721 28.4895 119.482 27.9916C118.316 27.5432 117.268 26.832 116.421 25.9134C115.609 25.0101 115 23.9435 114.634 22.7853C114.229 21.5018 114.029 20.1624 114.041 18.8166ZM126.826 16.8498C126.829 16.2629 126.743 15.6788 126.571 15.1176C126.417 14.5998 126.163 14.1171 125.825 13.6963C125.497 13.2969 125.087 12.9734 124.622 12.7481C124.091 12.5055 123.511 12.3872 122.927 12.4021C122.309 12.3903 121.697 12.5243 121.14 12.7931C120.645 13.0354 120.204 13.3768 119.846 13.796C119.489 14.2162 119.212 14.6978 119.027 15.2173C118.836 15.7478 118.705 16.298 118.636 16.8576L126.826 16.8498Z" fill="#001E62"/>
<path d="M142.757 15.0311L146.81 9.19531H151.437L145.039 18.3254C146.376 20.0041 147.658 21.6985 148.884 23.4085C150.002 24.9517 151.014 26.569 151.913 28.2492H147.109C146.852 27.7417 146.566 27.2495 146.253 26.7751C145.901 26.2394 145.526 25.6822 145.129 25.1035C144.731 24.5248 144.315 23.9507 143.881 23.3811C143.445 22.8142 143.022 22.2791 142.614 21.776C141.717 22.8231 140.879 23.9204 140.106 25.0625C139.289 26.2629 138.612 27.3251 138.075 28.2492H133.578C133.976 27.4535 134.419 26.6813 134.906 25.9364C135.427 25.127 135.989 24.2993 136.593 23.4535C137.196 22.6076 137.815 21.7604 138.448 20.9119C139.085 20.0673 139.717 19.2638 140.343 18.5013L133.866 9.19922H138.712L142.757 15.0311Z" fill="#001E62"/>
<path d="M135.43 31.5156C136.617 31.5156 137.53 31.732 138.167 32.1647C138.804 32.5974 139.12 33.2726 139.115 34.1901C139.127 34.6146 139.04 35.036 138.863 35.4218C138.696 35.7604 138.441 36.0484 138.126 36.2566C137.768 36.488 137.37 36.6498 136.953 36.7336C136.43 36.8419 135.896 36.8937 135.362 36.8881H134.609V39.762H133.125V31.717C133.503 31.6344 133.887 31.5808 134.273 31.5567C134.694 31.5293 135.079 31.5156 135.43 31.5156ZM135.538 32.8001C135.16 32.8001 134.849 32.8118 134.607 32.8353V35.6154H135.324C136.04 35.6154 136.59 35.515 136.974 35.3143C137.365 35.1188 137.561 34.7278 137.561 34.1784C137.569 33.9455 137.516 33.7144 137.408 33.5078C137.309 33.33 137.162 33.1832 136.984 33.0836C136.784 32.9746 136.566 32.9006 136.341 32.8646C136.076 32.8225 135.808 32.8035 135.539 32.8079L135.538 32.8001Z" fill="#001E62"/>
<path d="M142.234 33.4542C142.638 33.4442 143.041 33.5044 143.425 33.6321C143.722 33.7296 143.991 33.8996 144.207 34.1267C144.403 34.3471 144.544 34.6112 144.617 34.897C144.704 35.2222 144.746 35.5576 144.742 35.8941V39.6263C144.521 39.6732 144.191 39.7318 143.747 39.7983C143.249 39.8685 142.747 39.9018 142.244 39.898C141.903 39.9009 141.564 39.8655 141.231 39.7924C140.95 39.7314 140.684 39.6151 140.449 39.4503C140.231 39.2922 140.057 39.0817 139.943 38.8384C139.811 38.5462 139.749 38.2279 139.759 37.9078C139.748 37.5963 139.82 37.2875 139.966 37.0124C140.101 36.7737 140.293 36.5722 140.525 36.4259C140.775 36.2656 141.053 36.1535 141.344 36.0954C141.666 36.0275 141.994 35.9941 142.322 35.9957C142.487 35.9963 142.652 36.0061 142.817 36.0251C143.003 36.0472 143.188 36.0805 143.37 36.1248V35.8902C143.371 35.7306 143.351 35.5716 143.311 35.417C143.274 35.2681 143.201 35.1303 143.099 35.0156C142.997 34.9009 142.868 34.8126 142.725 34.7582C142.53 34.69 142.325 34.6582 142.119 34.6644C141.815 34.6624 141.511 34.6859 141.212 34.7347C140.984 34.7701 140.759 34.825 140.541 34.899L140.365 33.7455C140.621 33.6615 140.882 33.5961 141.147 33.55C141.506 33.4863 141.87 33.4542 142.234 33.4542ZM142.353 38.766C142.688 38.7741 143.024 38.7505 143.354 38.6957V37.116C143.242 37.0854 143.127 37.0619 143.012 37.0456C142.848 37.021 142.683 37.0092 142.517 37.0104C142.358 37.0106 142.198 37.0224 142.04 37.0456C141.889 37.0664 141.742 37.1099 141.604 37.1746C141.479 37.2341 141.372 37.3259 141.294 37.4405C141.21 37.5678 141.168 37.7183 141.174 37.8706C141.16 38.0051 141.182 38.1411 141.238 38.2642C141.294 38.3874 141.382 38.4932 141.493 38.5705C141.757 38.7128 142.054 38.7804 142.353 38.766Z" fill="#001E62"/>
<path d="M151.355 33.6016C150.779 35.7738 150.039 37.8997 149.144 39.9613C149.008 40.2761 148.846 40.5795 148.661 40.8685C148.51 41.1038 148.322 41.3142 148.106 41.4921C147.905 41.6565 147.673 41.7788 147.424 41.8518C146.924 41.9851 146.401 41.9991 145.895 41.8929C145.727 41.8609 145.563 41.8097 145.406 41.7404L145.666 40.5967C145.933 40.7047 146.219 40.7611 146.507 40.7629C146.819 40.7807 147.127 40.6864 147.375 40.497C147.619 40.2699 147.808 39.9896 147.926 39.6778C147.477 38.815 147.045 37.8733 146.63 36.8528C146.202 35.79 145.833 34.7046 145.524 33.6016H147.045C147.123 33.93 147.219 34.2871 147.334 34.6729C147.447 35.0639 147.572 35.4549 147.705 35.846C147.838 36.237 147.981 36.6377 148.132 37.0307C148.282 37.4237 148.431 37.7893 148.581 38.1255C148.831 37.4282 149.066 36.684 149.285 35.8929C149.504 35.1017 149.703 34.3386 149.883 33.6035L151.355 33.6016Z" fill="#001E62"/>
</g>
<defs>
<clipPath id="clip0_53296_71852">
<rect width="151.772" height="42.0002" fill="white" transform="translate(0.117188)"/>
</clipPath>
</defs>
</svg>
