<svg width="23" height="14" viewBox="0 0 23 14" fill="none" xmlns="http://www.w3.org/2000/svg">
<g id="Mastercard">
<path id="Left" fill-rule="evenodd" clip-rule="evenodd" d="M11.179 11.8241C9.99493 12.8222 8.45902 13.4247 6.78069 13.4247C3.03582 13.4247 0 10.425 0 6.72466C0 3.02435 3.03582 0.0246582 6.78069 0.0246582C8.45902 0.0246582 9.99493 0.627156 11.179 1.6252C12.363 0.627156 13.8989 0.0246582 15.5773 0.0246582C19.3221 0.0246582 22.358 3.02435 22.358 6.72466C22.358 10.425 19.3221 13.4247 15.5773 13.4247C13.8989 13.4247 12.363 12.8222 11.179 11.8241Z" fill="#ED0006"/>
<path id="Right" fill-rule="evenodd" clip-rule="evenodd" d="M11.179 11.8241C12.6369 10.5952 13.5614 8.76661 13.5614 6.72466C13.5614 4.6827 12.6369 2.8541 11.179 1.6252C12.363 0.627155 13.8989 0.0246582 15.5773 0.0246582C19.3221 0.0246582 22.3579 3.02435 22.3579 6.72466C22.3579 10.425 19.3221 13.4247 15.5773 13.4247C13.8989 13.4247 12.363 12.8222 11.179 11.8241Z" fill="#F9A000"/>
<path id="Middle" fill-rule="evenodd" clip-rule="evenodd" d="M11.179 11.8241C12.6369 10.5952 13.5614 8.76662 13.5614 6.72468C13.5614 4.68274 12.6369 2.85415 11.179 1.62524C9.72107 2.85415 8.79662 4.68274 8.79662 6.72468C8.79662 8.76662 9.72107 10.5952 11.179 11.8241Z" fill="#FF5E00"/>
</g>
</svg>
