<svg width="300" height="300" viewBox="0 0 300 300" fill="none" xmlns="http://www.w3.org/2000/svg">
<path d="M0 0H12V12H0V0ZM12 0H24V12H12V0ZM24 0H36V12H24V0ZM36 0H48V12H36V0ZM48 0H60V12H48V0ZM60 0H72V12H60V0ZM72 0H84V12H72V0ZM120 0H132V12H120V0ZM144 0H156V12H144V0ZM156 0H168V12H156V0ZM192 0H204V12H192V0ZM216 0H228V12H216V0ZM228 0H240V12H228V0ZM240 0H252V12H240V0ZM252 0H264V12H252V0ZM264 0H276V12H264V0ZM276 0H288V12H276V0ZM288 0H300V12H288V0ZM0 12H12V24H0V12ZM72 12H84V24H72V12ZM96 12H108V24H96V12ZM120 12H132V24H120V12ZM168 12H180V24H168V12ZM180 12H192V24H180V12ZM192 12H204V24H192V12ZM216 12H228V24H216V12ZM288 12H300V24H288V12ZM0 24H12V36H0V24ZM24 24H36V36H24V24ZM36 24H48V36H36V24ZM48 24H60V36H48V24ZM72 24H84V36H72V24ZM144 24H156V36H144V24ZM168 24H180V36H168V24ZM192 24H204V36H192V24ZM216 24H228V36H216V24ZM240 24H252V36H240V24ZM252 24H264V36H252V24ZM264 24H276V36H264V24ZM288 24H300V36H288V24ZM0 36H12V48H0V36ZM24 36H36V48H24V36ZM36 36H48V48H36V36ZM48 36H60V48H48V36ZM72 36H84V48H72V36ZM96 36H108V48H96V36ZM108 36H120V48H108V36ZM120 36H132V48H120V36ZM144 36H156V48H144V36ZM156 36H168V48H156V36ZM216 36H228V48H216V36ZM240 36H252V48H240V36ZM252 36H264V48H252V36ZM264 36H276V48H264V36ZM288 36H300V48H288V36ZM0 48H12V60H0V48ZM24 48H36V60H24V48ZM36 48H48V60H36V48ZM48 48H60V60H48V48ZM72 48H84V60H72V48ZM108 48H120V60H108V48ZM156 48H168V60H156V48ZM192 48H204V60H192V48ZM216 48H228V60H216V48ZM240 48H252V60H240V48ZM252 48H264V60H252V48ZM264 48H276V60H264V48ZM288 48H300V60H288V48ZM0 60H12V72H0V60ZM72 60H84V72H72V60ZM96 60H108V72H96V60ZM108 60H120V72H108V60ZM132 60H144V72H132V60ZM144 60H156V72H144V60ZM156 60H168V72H156V60ZM168 60H180V72H168V60ZM180 60H192V72H180V60ZM192 60H204V72H192V60ZM216 60H228V72H216V60ZM288 60H300V72H288V60ZM0 72H12V84H0V72ZM12 72H24V84H12V72ZM24 72H36V84H24V72ZM36 72H48V84H36V72ZM48 72H60V84H48V72ZM60 72H72V84H60V72ZM72 72H84V84H72V72ZM96 72H108V84H96V72ZM120 72H132V84H120V72ZM144 72H156V84H144V72ZM168 72H180V84H168V72ZM192 72H204V84H192V72ZM216 72H228V84H216V72ZM228 72H240V84H228V72ZM240 72H252V84H240V72ZM252 72H264V84H252V72ZM264 72H276V84H264V72ZM276 72H288V84H276V72ZM288 72H300V84H288V72ZM108 84H120V96H108V84ZM120 84H132V96H120V84ZM132 84H144V96H132V84ZM168 84H180V96H168V84ZM0 96H12V108H0V96ZM12 96H24V108H12V96ZM24 96H36V108H24V96ZM36 96H48V108H36V96ZM48 96H60V108H48V96ZM72 96H84V108H72V96ZM84 96H96V108H84V96ZM96 96H108V108H96V96ZM108 96H120V108H108V96ZM132 96H144V108H132V96ZM180 96H192V108H180V96ZM204 96H216V108H204V96ZM228 96H240V108H228V96ZM252 96H264V108H252V96ZM276 96H288V108H276V96ZM12 108H24V120H12V108ZM36 108H48V120H36V108ZM48 108H60V120H48V108ZM84 108H96V120H84V108ZM96 108H108V120H96V108ZM120 108H132V120H120V108ZM144 108H156V120H144V108ZM156 108H168V120H156V108ZM192 108H204V120H192V108ZM228 108H240V120H228V108ZM276 108H288V120H276V108ZM12 120H24V132H12V120ZM24 120H36V132H24V120ZM36 120H48V132H36V120ZM72 120H84V132H72V120ZM84 120H96V132H84V120ZM96 120H108V132H96V120ZM120 120H132V132H120V120ZM156 120H168V132H156V120ZM168 120H180V132H168V120ZM180 120H192V132H180V120ZM204 120H216V132H204V120ZM228 120H240V132H228V120ZM252 120H264V132H252V120ZM276 120H288V132H276V120ZM288 120H300V132H288V120ZM0 132H12V144H0V132ZM24 132H36V144H24V132ZM36 132H48V144H36V132ZM48 132H60V144H48V132ZM60 132H72V144H60V132ZM96 132H108V144H96V132ZM144 132H156V144H144V132ZM156 132H168V144H156V132ZM192 132H204V144H192V132ZM228 132H240V144H228V132ZM288 132H300V144H288V132ZM0 144H12V156H0V144ZM24 144H36V156H24V144ZM60 144H72V156H60V144ZM72 144H84V156H72V144ZM108 144H120V156H108V144ZM120 144H132V156H120V144ZM144 144H156V156H144V144ZM168 144H180V156H168V144ZM204 144H216V156H204V144ZM216 144H228V156H216V144ZM240 144H252V156H240V144ZM264 144H276V156H264V144ZM276 144H288V156H276V144ZM288 144H300V156H288V144ZM0 156H12V168H0V156ZM12 156H24V168H12V156ZM48 156H60V168H48V156ZM60 156H72V168H60V156ZM84 156H96V168H84V156ZM204 156H216V168H204V156ZM228 156H240V168H228V156ZM252 156H264V168H252V156ZM276 156H288V168H276V156ZM0 168H12V180H0V168ZM72 168H84V180H72V168ZM84 168H96V180H84V168ZM96 168H108V180H96V168ZM108 168H120V180H108V168ZM120 168H132V180H120V168ZM132 168H144V180H132V168ZM144 168H156V180H144V168ZM180 168H192V180H180V168ZM192 168H204V180H192V168ZM204 168H216V180H204V168ZM216 168H228V180H216V168ZM228 168H240V180H228V168ZM240 168H252V180H240V168ZM252 168H264V180H252V168ZM276 168H288V180H276V168ZM288 168H300V180H288V168ZM0 180H12V192H0V180ZM24 180H36V192H24V180ZM48 180H60V192H48V180ZM84 180H96V192H84V180ZM132 180H144V192H132V180ZM168 180H180V192H168V180ZM192 180H204V192H192V180ZM228 180H240V192H228V180ZM240 180H252V192H240V180ZM288 180H300V192H288V180ZM0 192H12V204H0V192ZM24 192H36V204H24V192ZM36 192H48V204H36V192ZM72 192H84V204H72V192ZM84 192H96V204H84V192ZM108 192H120V204H108V192ZM120 192H132V204H120V192ZM132 192H144V204H132V192ZM192 192H204V204H192V192ZM204 192H216V204H204V192ZM216 192H228V204H216V192ZM228 192H240V204H228V192ZM240 192H252V204H240V192ZM264 192H276V204H264V192ZM96 204H108V216H96V204ZM108 204H120V216H108V204ZM120 204H132V216H120V204ZM144 204H156V216H144V204ZM156 204H168V216H156V204ZM168 204H180V216H168V204ZM180 204H192V216H180V204ZM192 204H204V216H192V204ZM240 204H252V216H240V204ZM252 204H264V216H252V204ZM0 216H12V228H0V216ZM12 216H24V228H12V216ZM24 216H36V228H24V216ZM36 216H48V228H36V216ZM48 216H60V228H48V216ZM60 216H72V228H60V216ZM72 216H84V228H72V216ZM96 216H108V228H96V216ZM108 216H120V228H108V216ZM120 216H132V228H120V216ZM156 216H168V228H156V216ZM168 216H180V228H168V216ZM192 216H204V228H192V216ZM216 216H228V228H216V216ZM240 216H252V228H240V216ZM264 216H276V228H264V216ZM276 216H288V228H276V216ZM288 216H300V228H288V216ZM0 228H12V240H0V228ZM72 228H84V240H72V228ZM120 228H132V240H120V228ZM144 228H156V240H144V228ZM156 228H168V240H156V228ZM192 228H204V240H192V228ZM240 228H252V240H240V228ZM252 228H264V240H252V228ZM276 228H288V240H276V228ZM0 240H12V252H0V240ZM24 240H36V252H24V240ZM36 240H48V252H36V240ZM48 240H60V252H48V240ZM72 240H84V252H72V240ZM96 240H108V252H96V240ZM120 240H132V252H120V240ZM144 240H156V252H144V240ZM168 240H180V252H168V240ZM180 240H192V252H180V240ZM192 240H204V252H192V240ZM204 240H216V252H204V240ZM216 240H228V252H216V240ZM228 240H240V252H228V240ZM240 240H252V252H240V240ZM264 240H276V252H264V240ZM288 240H300V252H288V240ZM0 252H12V264H0V252ZM24 252H36V264H24V252ZM36 252H48V264H36V252ZM48 252H60V264H48V252ZM72 252H84V264H72V252ZM96 252H108V264H96V252ZM108 252H120V264H108V252ZM120 252H132V264H120V252ZM180 252H192V264H180V252ZM204 252H216V264H204V252ZM216 252H228V264H216V252ZM240 252H252V264H240V252ZM252 252H264V264H252V252ZM264 252H276V264H264V252ZM276 252H288V264H276V252ZM288 252H300V264H288V252ZM0 264H12V276H0V264ZM24 264H36V276H24V264ZM36 264H48V276H36V264ZM48 264H60V276H48V264ZM72 264H84V276H72V264ZM96 264H108V276H96V264ZM132 264H144V276H132V264ZM144 264H156V276H144V264ZM252 264H264V276H252V264ZM264 264H276V276H264V264ZM288 264H300V276H288V264ZM0 276H12V288H0V276ZM72 276H84V288H72V276ZM96 276H108V288H96V276ZM108 276H120V288H108V276ZM132 276H144V288H132V276ZM168 276H180V288H168V276ZM192 276H204V288H192V276ZM216 276H228V288H216V276ZM228 276H240V288H228V276ZM240 276H252V288H240V276ZM252 276H264V288H252V276ZM288 276H300V288H288V276ZM0 288H12V300H0V288ZM12 288H24V300H12V288ZM24 288H36V300H24V288ZM36 288H48V300H36V288ZM48 288H60V300H48V288ZM60 288H72V300H60V288ZM72 288H84V300H72V288ZM96 288H108V300H96V288ZM108 288H120V300H108V288ZM132 288H144V300H132V288ZM204 288H216V300H204V288ZM216 288H228V300H216V288ZM228 288H240V300H228V288ZM240 288H252V300H240V288ZM252 288H264V300H252V288ZM264 288H276V300H264V288ZM276 288H288V300H276V288ZM288 288H300V300H288V288Z" fill="#040A33"/>
</svg>
