<svg width="32" height="33" viewBox="0 0 32 33" fill="none" xmlns="http://www.w3.org/2000/svg">
<g clip-path="url(#clip0_53294_55130)">
<path d="M32 16.5C32 19.6645 31.0616 22.7579 29.3035 25.3891C27.5454 28.0203 25.0466 30.0711 22.1229 31.2821C19.1993 32.4931 15.9823 32.8099 12.8786 32.1926C9.77487 31.5752 6.92394 30.0514 4.6863 27.8137C2.44866 25.5761 0.924806 22.7251 0.307443 19.6214C-0.309921 16.5177 0.00693248 13.3007 1.21793 10.3771C2.42894 7.45345 4.4797 4.95459 7.11088 3.19649C9.74207 1.43838 12.8355 0.5 16 0.5C20.2435 0.5 24.3131 2.18571 27.3137 5.18629C30.3143 8.18687 32 12.2565 32 16.5Z" fill="#F7931A"/>
<path fill-rule="evenodd" clip-rule="evenodd" d="M11.369 7.80511L15.0461 8.78984L15.8679 5.72656L17.7065 6.22547L16.9167 9.1622L18.4163 9.56511L19.2076 6.59638L21.0781 7.09674L20.2723 10.0815C20.2723 10.0815 23.3268 10.7578 24.0454 13.2422C24.7639 15.7266 22.4658 17.0313 21.7559 17.0807C21.7559 17.0807 24.4323 18.5484 23.513 21.4357C22.5938 24.3229 19.7719 24.8393 16.8032 24.1775L15.9974 27.2727L14.1268 26.7724L14.9487 23.7251L13.465 23.3207L12.6432 26.3898L10.7872 25.8909L11.6105 22.8364L7.83594 21.8182L8.78721 19.7062C8.78721 19.7062 9.85194 19.9971 10.2548 20.0931C10.6578 20.1891 10.9167 19.7702 11.0301 19.3513C11.1436 18.9324 12.8527 11.9898 13.0141 11.4182C13.1756 10.8466 13.1101 10.4 12.4323 10.224C11.7545 10.048 10.8323 9.77311 10.8323 9.77311L11.369 7.80511ZM15.0781 16.9993L14.0599 21.0473C14.0599 21.0473 19.1087 22.8698 19.7545 20.3055C20.4003 17.7411 15.0781 16.9993 15.0781 16.9993ZM15.5465 15.0793L16.5458 11.3702C16.5458 11.3702 20.8687 12.144 20.3363 14.208C19.8039 16.272 17.2556 15.4807 15.5465 15.0793Z" fill="white"/>
</g>
<defs>
<clipPath id="clip0_53294_55130">
<rect width="32" height="32" fill="white" transform="translate(0 0.5)"/>
</clipPath>
</defs>
</svg>
