<svg width="32" height="33" viewBox="0 0 32 33" fill="none" xmlns="http://www.w3.org/2000/svg">
<g clip-path="url(#clip0_53294_55142)">
<path d="M16 32.5C24.8366 32.5 32 25.3366 32 16.5C32 7.66344 24.8366 0.5 16 0.5C7.16344 0.5 0 7.66344 0 16.5C0 25.3366 7.16344 32.5 16 32.5Z" fill="#627EEA"/>
<path d="M16.5 4.5V13.37L23.997 16.72L16.5 4.5Z" fill="white" fill-opacity="0.602"/>
<path d="M16.498 4.5L9 16.72L16.498 13.37V4.5Z" fill="white"/>
<path d="M16.5 22.4692V28.4962L24.002 18.1172L16.5 22.4692Z" fill="white" fill-opacity="0.602"/>
<path d="M16.498 28.4962V22.4682L9 18.1172L16.498 28.4962Z" fill="white"/>
<path d="M16.5 21.076L23.997 16.723L16.5 13.375V21.076Z" fill="white" fill-opacity="0.2"/>
<path d="M9 16.723L16.498 21.076V13.375L9 16.723Z" fill="white" fill-opacity="0.602"/>
</g>
<defs>
<clipPath id="clip0_53294_55142">
<rect width="32" height="32" fill="white" transform="translate(0 0.5)"/>
</clipPath>
</defs>
</svg>
