<svg width="25" height="24" viewBox="0 0 25 24" fill="none" xmlns="http://www.w3.org/2000/svg">
<g clip-path="url(#clip0_53296_71870)">
<path d="M23.9414 12.2261C23.9414 11.2429 23.8616 10.5253 23.6889 9.78125H12.4609V14.2192H19.0515C18.9187 15.3221 18.2012 16.9831 16.6066 18.0992L16.5843 18.2478L20.1343 20.998L20.3803 21.0225C22.6391 18.9363 23.9414 15.8669 23.9414 12.2261Z" fill="#4285F4"/>
<path d="M12.4566 23.9139C15.6855 23.9139 18.3961 22.8508 20.376 21.0172L16.6023 18.0939C15.5925 18.7981 14.2371 19.2898 12.4566 19.2898C9.29423 19.2898 6.61017 17.2037 5.65338 14.3203L5.51313 14.3322L1.82171 17.189L1.77344 17.3232C3.73997 21.2297 7.77939 23.9139 12.4566 23.9139Z" fill="#34A853"/>
<path d="M5.65551 14.3228C5.40305 13.5787 5.25695 12.7814 5.25695 11.9576C5.25695 11.1338 5.40305 10.3365 5.64223 9.59244L5.63554 9.43397L1.89786 6.53125L1.77557 6.58942C0.965069 8.21052 0.5 10.0309 0.5 11.9576C0.5 13.8843 0.965069 15.7047 1.77557 17.3258L5.65551 14.3228Z" fill="#FBBC05"/>
<path d="M12.4566 4.62403C14.7022 4.62403 16.2169 5.59402 17.0807 6.40461L20.4557 3.10928C18.3829 1.1826 15.6855 0 12.4566 0C7.77939 0 3.73997 2.68406 1.77344 6.59057L5.64009 9.59359C6.61017 6.7102 9.29423 4.62403 12.4566 4.62403Z" fill="#EB4335"/>
</g>
<defs>
<clipPath id="clip0_53296_71870">
<rect width="24" height="24" fill="white" transform="translate(0.5)"/>
</clipPath>
</defs>
</svg>
