<svg width="36" height="36" viewBox="0 0 36 36" fill="none" xmlns="http://www.w3.org/2000/svg">
<g opacity="0.3">
<path d="M17.9909 24.221C17.2712 24.221 16.6309 24.0595 16.0699 23.7365C15.5146 23.4078 15.0782 22.9715 14.7609 22.4275C14.4436 21.8778 14.2849 21.2687 14.2849 20.6H15.7129C15.7129 21.0023 15.8064 21.3707 15.9934 21.705C16.1804 22.0337 16.4439 22.2972 16.7839 22.4955C17.1239 22.6938 17.5262 22.793 17.9909 22.793C18.3932 22.793 18.7672 22.6938 19.1129 22.4955C19.4642 22.2972 19.7476 22.0337 19.9629 21.705C20.1782 21.3707 20.2859 21.0023 20.2859 20.6C20.2859 20.0957 20.1556 19.6763 19.8949 19.342C19.6399 19.002 19.2829 18.7498 18.8239 18.5855C18.3706 18.4155 17.8521 18.3305 17.2684 18.3305V17.183C18.0731 17.183 18.7162 17.0158 19.1979 16.6815C19.6852 16.3472 19.9289 15.8542 19.9289 15.2025C19.9289 14.8568 19.8354 14.5395 19.6484 14.2505C19.4614 13.9615 19.2149 13.732 18.9089 13.562C18.6086 13.3863 18.2856 13.2985 17.9399 13.2985C17.5886 13.2985 17.2514 13.3863 16.9284 13.562C16.6054 13.732 16.3419 13.9615 16.1379 14.2505C15.9339 14.5395 15.8319 14.8568 15.8319 15.2025H14.4039C14.4039 14.7435 14.4974 14.3128 14.6844 13.9105C14.8771 13.5082 15.1377 13.154 15.4664 12.848C15.8007 12.542 16.1776 12.304 16.5969 12.134C17.0162 11.9583 17.4582 11.8705 17.9229 11.8705C18.5292 11.8705 19.0931 12.0207 19.6144 12.321C20.1357 12.6213 20.5551 13.0237 20.8724 13.528C21.1954 14.0323 21.3569 14.5905 21.3569 15.2025C21.3569 15.7522 21.2181 16.2593 20.9404 16.724C20.6627 17.1887 20.2859 17.5145 19.8099 17.7015C20.2236 17.8432 20.5721 18.0642 20.8554 18.3645C21.1387 18.6592 21.3512 18.9992 21.4929 19.3845C21.6402 19.7698 21.7139 20.175 21.7139 20.6C21.7139 21.263 21.5411 21.8693 21.1954 22.419C20.8554 22.9687 20.4021 23.4078 19.8354 23.7365C19.2744 24.0595 18.6596 24.221 17.9909 24.221Z" fill="#001E62"/>
<path d="M17.9909 24.221C17.2712 24.221 16.6309 24.0595 16.0699 23.7365C15.5146 23.4078 15.0782 22.9715 14.7609 22.4275C14.4436 21.8778 14.2849 21.2687 14.2849 20.6H15.7129C15.7129 21.0023 15.8064 21.3707 15.9934 21.705C16.1804 22.0337 16.4439 22.2972 16.7839 22.4955C17.1239 22.6938 17.5262 22.793 17.9909 22.793C18.3932 22.793 18.7672 22.6938 19.1129 22.4955C19.4642 22.2972 19.7476 22.0337 19.9629 21.705C20.1782 21.3707 20.2859 21.0023 20.2859 20.6C20.2859 20.0957 20.1556 19.6763 19.8949 19.342C19.6399 19.002 19.2829 18.7498 18.8239 18.5855C18.3706 18.4155 17.8521 18.3305 17.2684 18.3305V17.183C18.0731 17.183 18.7162 17.0158 19.1979 16.6815C19.6852 16.3472 19.9289 15.8542 19.9289 15.2025C19.9289 14.8568 19.8354 14.5395 19.6484 14.2505C19.4614 13.9615 19.2149 13.732 18.9089 13.562C18.6086 13.3863 18.2856 13.2985 17.9399 13.2985C17.5886 13.2985 17.2514 13.3863 16.9284 13.562C16.6054 13.732 16.3419 13.9615 16.1379 14.2505C15.9339 14.5395 15.8319 14.8568 15.8319 15.2025H14.4039C14.4039 14.7435 14.4974 14.3128 14.6844 13.9105C14.8771 13.5082 15.1377 13.154 15.4664 12.848C15.8007 12.542 16.1776 12.304 16.5969 12.134C17.0162 11.9583 17.4582 11.8705 17.9229 11.8705C18.5292 11.8705 19.0931 12.0207 19.6144 12.321C20.1357 12.6213 20.5551 13.0237 20.8724 13.528C21.1954 14.0323 21.3569 14.5905 21.3569 15.2025C21.3569 15.7522 21.2181 16.2593 20.9404 16.724C20.6627 17.1887 20.2859 17.5145 19.8099 17.7015C20.2236 17.8432 20.5721 18.0642 20.8554 18.3645C21.1387 18.6592 21.3512 18.9992 21.4929 19.3845C21.6402 19.7698 21.7139 20.175 21.7139 20.6C21.7139 21.263 21.5411 21.8693 21.1954 22.419C20.8554 22.9687 20.4021 23.4078 19.8354 23.7365C19.2744 24.0595 18.6596 24.221 17.9909 24.221Z" fill="#091841"/>
</g>
<rect x="1" y="1" width="34" height="34" rx="17" stroke="#DDE4ED" stroke-width="2"/>
</svg>
