<svg width="38" height="38" viewBox="0 0 38 38" fill="none" xmlns="http://www.w3.org/2000/svg">
<g clip-path="url(#clip0_53294_52214)">
<rect x="1" y="1" width="36" height="36" rx="18" fill="#FBF9F7"/>
<rect x="2" y="2" width="34" height="34" rx="17" fill="#051255"/>
<path d="M14.9901 25V23.7335C15.4264 23.3425 15.9166 22.9062 16.4606 22.4245C17.0046 21.9372 17.5457 21.43 18.0841 20.903C18.6281 20.3703 19.1267 19.8433 19.5801 19.322C20.0334 18.8007 20.3989 18.3077 20.6766 17.843C20.9542 17.3727 21.0931 16.9618 21.0931 16.6105C21.0931 16.1912 20.9911 15.8087 20.7871 15.463C20.5831 15.1117 20.3082 14.8312 19.9626 14.6215C19.6226 14.4118 19.2429 14.307 18.8236 14.307C18.4042 14.307 18.0189 14.4118 17.6676 14.6215C17.3219 14.8312 17.0442 15.1117 16.8346 15.463C16.6306 15.8087 16.5286 16.1912 16.5286 16.6105H15.1006C15.1006 15.9135 15.2706 15.2845 15.6106 14.7235C15.9506 14.1568 16.4011 13.7092 16.9621 13.3805C17.5231 13.0462 18.1436 12.879 18.8236 12.879C19.5036 12.879 20.1212 13.0462 20.6766 13.3805C21.2376 13.7148 21.6852 14.1653 22.0196 14.732C22.3539 15.293 22.5211 15.9192 22.5211 16.6105C22.5211 17.0072 22.4247 17.435 22.2321 17.894C22.0394 18.3473 21.7759 18.8148 21.4416 19.2965C21.1072 19.7782 20.7276 20.2655 20.3026 20.7585C19.8776 21.2458 19.4299 21.7275 18.9596 22.2035C18.4892 22.6795 18.0217 23.1357 17.5571 23.572H22.6741V25H14.9901Z" fill="white"/>
<rect x="2" y="2" width="34" height="34" rx="17" stroke="white" stroke-width="2"/>
</g>
<rect x="0.5" y="0.5" width="37" height="37" rx="18.5" stroke="#051255" stroke-linejoin="round"/>
<defs>
<clipPath id="clip0_53294_52214">
<rect x="1" y="1" width="36" height="36" rx="18" fill="white"/>
</clipPath>
</defs>
</svg>
