<svg width="32" height="33" viewBox="0 0 32 33" fill="none" xmlns="http://www.w3.org/2000/svg">
<g clip-path="url(#clip0_53294_55124)">
<path d="M16 32.5C24.8366 32.5 32 25.3366 32 16.5C32 7.66344 24.8366 0.5 16 0.5C7.16344 0.5 0 7.66344 0 16.5C0 25.3366 7.16344 32.5 16 32.5Z" fill="#26A17B"/>
<path fill-rule="evenodd" clip-rule="evenodd" d="M17.9267 17.8843V17.8823C17.8167 17.8903 17.2497 17.9243 15.9847 17.9243C14.9747 17.9243 14.2637 17.8943 14.0137 17.8823V17.8853C10.1257 17.7143 7.22369 17.0373 7.22369 16.2273C7.22369 15.4183 10.1257 14.7413 14.0137 14.5673V17.2113C14.2677 17.2293 14.9957 17.2723 16.0017 17.2723C17.2087 17.2723 17.8137 17.2223 17.9267 17.2123V14.5693C21.8067 14.7423 24.7017 15.4193 24.7017 16.2273C24.7017 17.0373 21.8067 17.7123 17.9267 17.8843ZM17.9267 14.2943V11.9283H23.3407V8.32031H8.59969V11.9283H14.0137V14.2933C9.61369 14.4953 6.30469 15.3673 6.30469 16.4113C6.30469 17.4553 9.61369 18.3263 14.0137 18.5293V26.1113H17.9267V18.5273C22.3197 18.3253 25.6207 17.4543 25.6207 16.4113C25.6207 15.3683 22.3197 14.4973 17.9267 14.2943Z" fill="white"/>
</g>
<defs>
<clipPath id="clip0_53294_55124">
<rect width="32" height="32" fill="white" transform="translate(0 0.5)"/>
</clipPath>
</defs>
</svg>
