<svg width="32" height="32" viewBox="0 0 32 32" fill="none" xmlns="http://www.w3.org/2000/svg">
<path d="M31.9959 31.2221V31.3821C28.9355 31.3917 25.8751 31.4141 22.8147 31.3917C22.4876 31.3509 22.1878 31.1888 21.9748 30.9373C20.055 28.7264 18.1641 26.4915 16.2635 24.2646L11.1186 18.2302C10.853 18.4493 10.6258 18.6285 10.4083 18.8205C7.17347 21.6724 3.93869 24.5243 0.703909 27.3762C0.479318 27.5504 0.24424 27.7107 0 27.8561L0 4.49913L9.2788 12.5941C9.52997 12.3733 9.73154 12.2053 9.91872 12.0262C14.0121 8.17812 18.107 4.33275 22.2035 0.490046C22.4403 0.269274 22.7699 0.0101077 23.0578 0.0101077C26.0382 -0.0138892 29.0187 0.0101077 31.9991 0.0277054V0.187685C31.8454 0.286537 31.6969 0.393335 31.5543 0.507643C27.0056 4.53059 22.46 8.55674 17.9177 12.5861C16.5675 13.7843 15.2236 14.9858 13.8462 16.216C14.0814 16.4256 14.251 16.5904 14.4333 16.7407C16.8533 18.7458 19.2743 20.7488 21.6964 22.7496C25.1274 25.5769 28.5606 28.4011 31.9959 31.2221ZM1.01587 6.75004L0.855889 6.81083L4.56101 17.5054L7.65821 14.2371L1.01587 6.75004Z" fill="white"/>
</svg>
